<svg version="1.1" id="svg2" xmlns="http://www.w3.org/2000/svg" x="0" y="0" viewBox="0 0 60 60" xml:space="preserve"><style>.st0{fill:#d2b985}</style><g id="layer1" transform="translate(0 -992.362)"><path id="rect3950" class="st0" d="M18 998.4h6v6h-6z"/><path id="rect3950-2" class="st0" d="M12 998.4h6v6h-6z"/><path id="rect3950-6" class="st0" d="M24 1004.4h6v6h-6z"/><path id="rect3950-0" class="st0" d="M30 1004.4h6v6h-6z"/><path id="rect3950-23" class="st0" d="M36 998.4h6v6h-6z"/><path id="rect3950-7" class="st0" d="M42 998.4h6v6h-6z"/><path id="rect3950-07" class="st0" d="M48 998.4h6v6h-6z"/><path id="rect3950-62" class="st0" d="M54 1004.4h6v6h-6z"/><path id="rect3950-5" class="st0" d="M54 1010.4h6v6h-6z"/><path id="rect3950-9" class="st0" d="M6 998.4h6v6H6z"/><path id="rect3950-57" class="st0" d="M0 1004.4h6v6H0z"/><path id="rect3950-1" class="st0" d="M0 1010.4h6v6H0z"/><path id="rect3950-28" class="st0" d="M0 1016.4h6v6H0z"/><path id="rect3950-72" class="st0" d="M54 1016.4h6v6h-6z"/><path id="rect3950-66" class="st0" d="M6 1022.4h6v6H6z"/><path id="rect3950-00" class="st0" d="M12 1028.4h6v6h-6z"/><path id="rect3950-3" class="st0" d="M18 1034.4h6v6h-6z"/><path id="rect3950-99" class="st0" d="M24 1040.4h6v6h-6z"/><path id="rect3950-10" class="st0" d="M30 1040.4h6v6h-6z"/><path id="rect3950-38" class="st0" d="M36 1034.4h6v6h-6z"/><path id="rect3950-8" class="st0" d="M42 1028.4h6v6h-6z"/><path id="rect3950-74" class="st0" d="M48 1022.4h6v6h-6z"/></g></svg>