<?xml version="1.0" encoding="utf-8"?>
<!-- Generator: Adobe Illustrator 22.1.0, SVG Export Plug-In . SVG Version: 6.00 Build 0)  -->
<svg version="1.1" id="svg2" xmlns="http://www.w3.org/2000/svg" xmlns:xlink="http://www.w3.org/1999/xlink" x="0px" y="0px"
	 viewBox="0 0 70 60" style="enable-background:new 0 0 70 60;" xml:space="preserve">
<style type="text/css">
	.st0{fill:#D2B985;}
</style>
<g id="layer1" transform="translate(0 -992.362)">
	<path id="rect3950" class="st0" d="M18,998.4h6v6h-6V998.4z"/>
	<path id="rect3950-2" class="st0" d="M12,998.4h6v6h-6V998.4z"/>
	<path id="rect3950-6" class="st0" d="M24,1004.4h6v6h-6V1004.4z"/>
	<path id="rect3950-0" class="st0" d="M30,1004.4h6v6h-6V1004.4z"/>
	<path id="rect3950-23" class="st0" d="M36,998.4h6v6h-6V998.4z"/>
	<path id="rect3950-7" class="st0" d="M42,998.4h6v6h-6V998.4z"/>
	<path id="rect3950-07" class="st0" d="M48,998.4h6v6h-6V998.4z"/>
	<path id="rect3950-62" class="st0" d="M54,1004.4h6v6h-6V1004.4z"/>
	<path id="rect3950-5" class="st0" d="M54,1010.4h6v6h-6V1010.4z"/>
	<path id="rect3950-9" class="st0" d="M6,998.4h6v6H6V998.4z"/>
	<path id="rect3950-57" class="st0" d="M0,1004.4h6v6H0V1004.4z"/>
	<path id="rect3950-1" class="st0" d="M0,1010.4h6v6H0V1010.4z"/>
	<path id="rect3950-28" class="st0" d="M0,1016.4h6v6H0V1016.4z"/>
	<path id="rect3950-72" class="st0" d="M54,1016.4h6v6h-6V1016.4z"/>
	<path id="rect3950-66" class="st0" d="M6,1022.4h6v6H6V1022.4z"/>
	<path id="rect3950-00" class="st0" d="M12,1028.4h6v6h-6V1028.4z"/>
	<path id="rect3950-3" class="st0" d="M18,1034.4h6v6h-6V1034.4z"/>
	<path id="rect3950-99" class="st0" d="M24,1040.4h6v6h-6V1040.4z"/>
	<path id="rect3950-10" class="st0" d="M30,1040.4h6v6h-6V1040.4z"/>
	<path id="rect3950-38" class="st0" d="M36,1034.4h6v6h-6V1034.4z"/>
	<path id="rect3950-8" class="st0" d="M42,1028.4h6v6h-6V1028.4z"/>
	<path id="rect3950-74" class="st0" d="M48,1022.4h6v6h-6V1022.4z"/>
</g>
</svg>
